# xmcd
#
# Track frame offsets: 
#        150
#        13596
#        17621
#        22110
#        26038
#        29806
#        39187
#        42735
#        45680
#        53895
#        61956
#        71172
#        89815
#        99082
#        107371
#        114645
#        122121
#        138742
#        141041
#        142493
#        162997
#        173484
#        199952
#        208199
#        209726
#        215231
#        234335
#        246926
#        274018
#        279582
#
# Disc length: 3881 seconds
#
# Revision: 0
# Processed by: cddbd v1.5.2PL0 Copyright (c) Steve Scherf et al.
# Submitted via: ExactAudioCopy v0.95b3
#
DISCID=da0f271e
DTITLE=Jimi Hendrix  - Studio Sessions Vol.2 (Voodoo Chile Records  Bo
DTITLE=x-Set) - Disc 3
DYEAR=1900
DGENRE=
TTITLE0=Mannish Boy Sessions(Part 2)
TTITLE1=Mannish Boy Sessions(Part 2)
TTITLE2=Mannish Boy Sessions(Part 2)
TTITLE3=Mannish Boy Sessions(Part 2)
TTITLE4=Mannish Boy Sessions(Part 2)
TTITLE5=Mannish Boy Sessions(Part 2)
TTITLE6=Mannish Boy Sessions(Part 2)
TTITLE7=Mannish Boy Sessions(Part 2)
TTITLE8=Mannish Boy Sessions(Part 2)
TTITLE9=Mannish Boy Sessions(Part 2)
TTITLE10=Mannish Boy Sessions(Part 2)
TTITLE11=Mannish Boy Sessions(Part 2)
TTITLE12=Mannish Boy Sessions(Part 2)
TTITLE13=Mannish Boy Sessions(Part 2)
TTITLE14=Mannish Boy Sessions(Part 2)
TTITLE15=Mannish Boy Sessions(Part 2)
TTITLE16=Mannish Boy Sessions(Part 2)
TTITLE17=Mannish Boy Sessions(Part 2)
TTITLE18=Mannish Boy Sessions(Part 2)
TTITLE19=Mannish Boy Sessions(Part 2)
TTITLE20=Mannish Boy Sessions(Part 2)
TTITLE21=Mannish Boy Sessions(Part 2)
TTITLE22=Mannish Boy Sessions(Part 2)
TTITLE23=Mannish Boy Sessions(Part 2)
TTITLE24=Mannish Boy Sessions(Part 2)
TTITLE25=Mannish Boy Sessions(Part 2)
TTITLE26=Mannish Boy Sessions(Part 2)
TTITLE27=Mannish Boy Sessions(Part 2)
TTITLE28=Mannish Boy Sessions(Part 2)
TTITLE29=Mannish Boy Sessions(Part 2)
EXTD=
EXTT0=
EXTT1=
EXTT2=
EXTT3=
EXTT4=
EXTT5=
EXTT6=
EXTT7=
EXTT8=
EXTT9=
EXTT10=
EXTT11=
EXTT12=
EXTT13=
EXTT14=
EXTT15=
EXTT16=
EXTT17=
EXTT18=
EXTT19=
EXTT20=
EXTT21=
EXTT22=
EXTT23=
EXTT24=
EXTT25=
EXTT26=
EXTT27=
EXTT28=
EXTT29=
PLAYORDER=
